<svg id="instagram" xmlns="http://www.w3.org/2000/svg" width="56.97" height="56.97" viewBox="0 0 56.97 56.97">
  <path id="Path_314" data-name="Path 314" d="M217.9,212.452A5.452,5.452,0,1,1,212.452,207,5.452,5.452,0,0,1,217.9,212.452Zm0,0" transform="translate(-183.967 -183.967)" fill="#022f84"/>
  <path id="Path_315" data-name="Path 315" d="M161.645,139.251a5.417,5.417,0,0,0-3.1-3.1,9.049,9.049,0,0,0-3.037-.563c-1.725-.079-2.242-.1-6.61-.1s-4.885.017-6.61.1a9.055,9.055,0,0,0-3.037.563,5.419,5.419,0,0,0-3.1,3.1,9.053,9.053,0,0,0-.563,3.037c-.079,1.725-.1,2.242-.1,6.61s.017,4.885.1,6.61a9.05,9.05,0,0,0,.563,3.037,5.417,5.417,0,0,0,3.1,3.1,9.038,9.038,0,0,0,3.037.563c1.725.079,2.241.1,6.609.1s4.885-.017,6.61-.1a9.039,9.039,0,0,0,3.037-.563,5.416,5.416,0,0,0,3.1-3.1,9.058,9.058,0,0,0,.563-3.037c.079-1.725.1-2.242.1-6.61s-.017-4.885-.1-6.61A9.039,9.039,0,0,0,161.645,139.251ZM148.894,157.3a8.4,8.4,0,1,1,8.4-8.4A8.4,8.4,0,0,1,148.894,157.3Zm8.731-15.167a1.963,1.963,0,1,1,1.963-1.963A1.963,1.963,0,0,1,157.625,142.13Zm0,0" transform="translate(-120.409 -120.413)" fill="#022f84"/>
  <path id="Path_316" data-name="Path 316" d="M28.485,0A28.485,28.485,0,1,0,56.97,28.485,28.488,28.488,0,0,0,28.485,0ZM44.743,35.228a12,12,0,0,1-.76,3.97A8.363,8.363,0,0,1,39.2,43.982a12.009,12.009,0,0,1-3.97.76c-1.744.08-2.3.1-6.744.1s-5-.019-6.744-.1a12.009,12.009,0,0,1-3.97-.76A8.363,8.363,0,0,1,12.988,39.2a12,12,0,0,1-.76-3.97c-.08-1.745-.1-2.3-.1-6.744s.019-5,.1-6.744a12,12,0,0,1,.76-3.97,8.369,8.369,0,0,1,4.784-4.784,12.012,12.012,0,0,1,3.97-.76c1.744-.08,2.3-.1,6.744-.1s5,.019,6.744.1a12.014,12.014,0,0,1,3.97.759,8.366,8.366,0,0,1,4.784,4.784,12,12,0,0,1,.761,3.97c.08,1.744.1,2.3.1,6.744S44.823,33.484,44.743,35.228Zm0,0" fill="#022f84"/>
</svg>
