<svg xmlns="http://www.w3.org/2000/svg" width="56.972" height="56.972" viewBox="0 0 56.972 56.972">
  <path id="linkedin" d="M28.486,0A28.486,28.486,0,1,0,56.972,28.486,28.489,28.489,0,0,0,28.486,0ZM20.208,43.063H13.271V22.191h6.938ZM16.74,19.341h-.045a3.616,3.616,0,1,1,.091-7.212,3.617,3.617,0,1,1-.046,7.212ZM45.224,43.063H38.287V31.9c0-2.806-1-4.72-3.515-4.72a3.8,3.8,0,0,0-3.559,2.537,4.751,4.751,0,0,0-.228,1.693V43.063H24.047s.091-18.914,0-20.872h6.937v2.955A6.887,6.887,0,0,1,37.237,21.7c4.564,0,7.987,2.983,7.987,9.394Zm0,0" fill="#023086"/>
</svg>
