<svg xmlns="http://www.w3.org/2000/svg" width="399.795" height="385.55" viewBox="0 0 399.795 385.55">
  <g id="Group_44" data-name="Group 44" transform="translate(-1134.455 -1348.715)">
    <g id="Group_23" data-name="Group 23" transform="translate(1349.175 1561.819)" opacity="0.29" style="isolation: isolate">
      <path id="Path_318" data-name="Path 318" d="M118.38-136.68c42.282,45.055,75.034,105.533,64.81,158.646-10.224,53.2-63.337,98.948-123.122,125.721C.284,174.546-66.086,182.344-113.48,157.044c-47.308-25.3-75.554-83.7-86.124-142.53C-210.175-44.4-203.07-103.669-171.358-146.3c31.625-42.629,87.857-68.536,141.837-66.716s105.706,31.279,147.9,76.334" fill="#606060"/>
    </g>
    <g id="Group_24" data-name="Group 24" transform="translate(1338.63 1794.222)" style="isolation: isolate">
      <path id="Path_318-2" data-name="Path 318" d="M-105.942-189.829c12.877,13.721,22.851,32.14,19.738,48.315-3.114,16.2-19.289,30.134-37.5,38.288-18.207,8.18-38.42,10.555-52.854,2.85-14.407-7.705-23.01-25.49-26.229-43.407-3.219-17.943-1.055-35.992,8.6-48.975,9.631-12.983,26.757-20.872,43.2-20.318s32.192,9.526,45.043,23.247" transform="translate(0 0)" fill="#053fa2"/>
    </g>
  </g>
</svg>
